<?xml version="1.0" encoding="iso-8859-1"?>
<!-- Generator: Adobe Illustrator 19.1.0, SVG Export Plug-In . SVG Version: 6.00 Build 0)  -->
<svg version="1.1" id="Capa_1" xmlns="http://www.w3.org/2000/svg" xmlns:xlink="http://www.w3.org/1999/xlink" x="0px" y="0px"
	 viewBox="0 0 65 65" style="enable-background:new 0 0 65 65;" xml:space="preserve">
<g>
	<g id="group-13svg">
		<path id="path-1_3_" style="fill:#FF917B;" d="M64,53.015c0,4.422-3.582,8.007-8,8.007H14c-4.419,0-8-3.585-8-8.007V16.988
			c0-4.422,3.581-8.006,8-8.006h42c4.418,0,8,3.584,8,8.006V53.015z"/>
		<path id="path-2_3_" style="fill:#EDC951;" d="M65,19.991v-3.868c0-4.286-3.638-8.142-7.92-8.142H14.434
			C10.151,7.981,7,11.837,7,16.123v3.868H65z"/>
		<path id="path-3_3_" d="M51.5,59.021h-42c-5.238,0-9.5-4.265-9.5-9.507V13.486c0-5.243,4.262-9.508,9.5-9.508h42
			c5.238,0,9.5,4.265,9.5,9.508v36.028C61,54.756,56.738,59.021,51.5,59.021z M9.5,6.981c-3.584,0-6.5,2.918-6.5,6.505v36.028
			c0,3.587,2.916,6.505,6.5,6.505h42c3.584,0,6.5-2.918,6.5-6.505V13.486c0-3.587-2.916-6.505-6.5-6.505H9.5z"/>
		<path id="path-4_3_" d="M59.5,18.99h-58c-0.829,0-1.5-0.672-1.5-1.501v-4.276c0-5.005,4.391-9.235,9.587-9.235h42.646
			c4.998,0,8.767,3.971,8.767,9.235v4.276C61,18.318,60.329,18.99,59.5,18.99z M3,15.988h55v-2.775c0-3.611-2.425-6.232-5.767-6.232
			H9.587C6.017,6.981,3,9.835,3,13.213V15.988z"/>
		<path id="path-5_3_" d="M13.131,12.71c0,0.945-0.766,1.711-1.711,1.711c-0.944,0-1.71-0.766-1.71-1.711
			c0-0.946,0.766-1.712,1.71-1.712C12.365,10.998,13.131,11.764,13.131,12.71z"/>
		<path id="path-6_3_" d="M18.832,12.71c0,0.945-0.766,1.711-1.71,1.711c-0.945,0-1.711-0.766-1.711-1.711
			c0-0.946,0.766-1.712,1.711-1.712C18.066,10.998,18.832,11.764,18.832,12.71z"/>
		<path id="path-7_3_" d="M24.533,12.71c0,0.945-0.765,1.711-1.71,1.711s-1.71-0.766-1.71-1.711c0-0.946,0.765-1.712,1.71-1.712
			S24.533,11.764,24.533,12.71z"/>
		<path id="path-8_3_" d="M19.471,38.125c-0.828,0-1.5-0.671-1.5-1.501c0-7.295,5.931-13.231,13.221-13.231
			c6.596,0,12.229,4.926,13.104,11.46c0.11,0.822-0.467,1.577-1.288,1.687c-0.824,0.111-1.575-0.466-1.686-1.288
			c-0.676-5.049-5.031-8.857-10.13-8.857c-5.635,0-10.221,4.589-10.221,10.229C20.971,37.455,20.3,38.125,19.471,38.125z"/>
		<path id="path-9_3_" d="M31.115,50.014c-0.003,0-0.007,0-0.01,0c-1.907,0-3.745-0.269-5.463-1.064
			c-0.751-0.349-1.079-1.164-0.731-1.917c0.349-0.752,1.24-1.04,1.992-0.693c1.326,0.615,2.746,0.95,4.221,0.96
			c0.829,0.005,1.496,0.538,1.491,1.367C32.609,49.493,31.939,50.014,31.115,50.014z M22.313,46.25c-0.421,0-0.84-0.176-1.136-0.52
			c-1.244-1.443-2.145-3.098-2.677-4.919c-0.233-0.795,0.222-1.629,1.018-1.862c0.798-0.235,1.628,0.224,1.86,1.019
			c0.412,1.406,1.108,2.685,2.07,3.801c0.541,0.627,0.471,1.576-0.156,2.117C23.009,46.131,22.66,46.25,22.313,46.25z"/>
		<path id="path-10_1_" d="M43.266,32.808l2.782-0.887c0.659-0.21,1.362,0.317,1.315,1.007c-0.011,0.165-0.049,0.35-0.129,0.507
			L44.7,38.339c-0.254,0.493-0.861,0.683-1.353,0.428l-4.904-2.54c-0.155-0.081-0.291-0.201-0.395-0.328
			c-0.437-0.536-0.168-1.373,0.491-1.584l2.932-0.934L43.266,32.808z"/>
	</g>
</g>
<g>
</g>
<g>
</g>
<g>
</g>
<g>
</g>
<g>
</g>
<g>
</g>
<g>
</g>
<g>
</g>
<g>
</g>
<g>
</g>
<g>
</g>
<g>
</g>
<g>
</g>
<g>
</g>
<g>
</g>
</svg>
